<svg width="34" height="33" viewBox="0 0 34 33" fill="none" xmlns="http://www.w3.org/2000/svg">
<path d="M10.9898 21.2615C10.7559 20.9828 10.7697 20.5786 11.0079 20.3167L11.0784 20.2489L22.0903 11.0089C22.3943 10.7537 22.8477 10.7934 23.1029 11.0975C23.3367 11.3762 23.3229 11.7804 23.0848 12.0423L23.0143 12.1101L12.0024 21.3501C11.6983 21.6053 11.2449 21.5656 10.9898 21.2615Z" fill="white"/>
<path d="M14.3388 11.5797C13.9433 11.546 13.65 11.198 13.6837 10.8025C13.7144 10.4429 14.0048 10.1679 14.3545 10.1462L14.461 10.1474L22.6132 10.843C22.9739 10.8738 23.2493 11.1657 23.2697 11.5165L23.268 11.6233L22.538 19.7732C22.5026 20.1686 22.1534 20.4604 21.758 20.425C21.3986 20.3928 21.1247 20.1012 21.1045 19.7514L21.1062 19.645L21.7714 12.2139L14.3388 11.5797Z" fill="white"/>
</svg>
